<svg preserveAspectRatio="none" overflow="visible" style="display: block;" width="227.226" height="325.541" viewBox="0 0 227.226 325.541" fill="none" xmlns="http://www.w3.org/2000/svg">
<g id="Frame" clip-path="url(#clip0_0_18)">
<path id="Vector" d="M165.177 325.541L227.226 222.519L200.695 216.849L214.602 179.085L195.667 178.657L180.369 137.256L207.969 131.372L145.921 28.3498L182.187 124.846L177.587 129.66L154.265 66.3278L171.703 167.852L154.586 180.048L175.447 179.62L190.532 190.318L172.987 291.842L197.592 225.086L201.444 229.045L165.177 325.541Z" fill="black"/>
<path id="Vector_2" d="M52.0994 128.804L48.2481 124.846L84.5144 28.3498L22.4659 131.372L48.997 137.042L35.3035 174.271L12.0888 174.806L27.6009 216.635L3.01072e-05 222.519L62.0485 325.541L25.7823 229.045L30.3824 224.231L53.7041 287.563L36.1593 186.039L51.4575 175.234L76.3839 175.769L59.1601 163.573L76.7048 62.0486L52.0994 128.804Z" fill="black"/>
<g id="Group">
<path id="Vector_3" d="M150.2 271.623V219.31L115.218 193.099L80.2351 219.31V271.623L115.218 297.726L150.2 271.623Z" fill="black"/>
<path id="Vector_4" d="M132.87 95.7473L115.218 85.0493L97.5662 95.7473V65.7929L115.218 55.0948L132.87 65.7929V95.7473Z" fill="black"/>
<path id="Vector_5" d="M131.265 141.749L115.218 131.907L99.1708 141.749V114.148L115.218 104.306L131.265 114.148V141.749Z" fill="black"/>
<path id="Vector_6" d="M129.66 184.541L115.218 175.555L100.776 184.541V159.294L115.218 150.307L129.66 159.294V184.541Z" fill="black"/>
<g id="Group_2">
<path id="Vector_7" d="M92.1101 21.5032L106.766 43.0062H121.958L107.194 21.5032L121.958 0.000127137H107.729L92.1101 21.5032Z" fill="black"/>
<path id="Vector_8" d="M121.957 0.000246342V30.5966L132.869 46.5366V14.8705L121.957 0.000246342Z" fill="black"/>
</g>
</g>
</g>
<defs>
<clipPath id="clip0_0_18">
<rect width="227.226" height="325.541" fill="white"/>
</clipPath>
</defs>
</svg>
