<svg preserveAspectRatio="none" overflow="visible" style="display: block;" width="266" height="381" viewBox="0 0 266 381" fill="none" xmlns="http://www.w3.org/2000/svg">
<g id="Frame" clip-path="url(#clip0_0_4)">
<path id="Vector" d="M193.363 381L266 260.427L234.942 253.791L251.222 209.594L229.055 209.093L211.147 160.639L243.458 153.752L170.821 33.1795L213.276 146.115L207.891 151.749L180.589 77.6274L201.003 196.447L180.965 210.721L205.386 210.22L223.044 222.74L202.506 341.56L231.31 263.432L235.818 268.065L193.363 381Z" fill="url(#paint0_linear_0_4)"/>
<path id="Vector_2" d="M60.9897 150.747L56.4812 146.115L98.936 33.1795L26.2995 153.752L57.3578 160.388L41.3277 203.96L14.1516 204.586L32.3108 253.541L3.52448e-05 260.427L72.6366 381L30.1818 268.065L35.5669 262.431L62.8682 336.552L42.3296 217.732L60.2383 205.086L89.4181 205.713L69.2552 191.439L89.7938 72.6192L60.9897 150.747Z" fill="url(#paint1_linear_0_4)"/>
<g id="Group">
<path id="Vector_3" d="M175.83 317.897V256.671L134.878 225.996L93.9265 256.671V317.897L134.878 348.447L175.83 317.897Z" fill="url(#paint2_linear_0_4)"/>
<path id="Vector_4" d="M155.543 112.059L134.879 99.5383L114.215 112.059V77.0014L134.879 64.4808L155.543 77.0014V112.059Z" fill="url(#paint3_linear_0_4)"/>
<path id="Vector_5" d="M153.664 165.897L134.879 154.378L116.093 165.897V133.594L134.879 122.075L153.664 133.594V165.897Z" fill="url(#paint4_linear_0_4)"/>
<path id="Vector_6" d="M151.786 215.98L134.879 205.462L117.972 215.98V186.431L134.879 175.914L151.786 186.431V215.98Z" fill="url(#paint5_linear_0_4)"/>
<g id="Group_2">
<path id="Vector_7" d="M107.828 25.1664L124.985 50.3327H142.769L125.486 25.1664L142.769 0.000148797H126.112L107.828 25.1664Z" fill="url(#paint6_linear_0_4)"/>
<path id="Vector_8" d="M142.768 0.000288309V35.809L155.542 54.4646V17.4038L142.768 0.000288309Z" fill="url(#paint7_linear_0_4)"/>
</g>
</g>
</g>
<defs>
<linearGradient id="paint0_linear_0_4" x1="218.41" y1="33.1795" x2="218.41" y2="381" gradientUnits="userSpaceOnUse">
<stop stop-color="#D9D9D9"/>
<stop offset="1" stop-color="#737373"/>
</linearGradient>
<linearGradient id="paint1_linear_0_4" x1="49.468" y1="33.1795" x2="49.468" y2="381" gradientUnits="userSpaceOnUse">
<stop stop-color="#D9D9D9"/>
<stop offset="1" stop-color="#737373"/>
</linearGradient>
<linearGradient id="paint2_linear_0_4" x1="134.878" y1="225.996" x2="134.878" y2="348.447" gradientUnits="userSpaceOnUse">
<stop stop-color="#D9D9D9"/>
<stop offset="1" stop-color="#737373"/>
</linearGradient>
<linearGradient id="paint3_linear_0_4" x1="134.879" y1="64.4808" x2="134.879" y2="112.059" gradientUnits="userSpaceOnUse">
<stop stop-color="#D9D9D9"/>
<stop offset="1" stop-color="#737373"/>
</linearGradient>
<linearGradient id="paint4_linear_0_4" x1="134.879" y1="122.075" x2="134.879" y2="165.897" gradientUnits="userSpaceOnUse">
<stop stop-color="#D9D9D9"/>
<stop offset="1" stop-color="#737373"/>
</linearGradient>
<linearGradient id="paint5_linear_0_4" x1="134.879" y1="175.914" x2="134.879" y2="215.98" gradientUnits="userSpaceOnUse">
<stop stop-color="#D9D9D9"/>
<stop offset="1" stop-color="#737373"/>
</linearGradient>
<linearGradient id="paint6_linear_0_4" x1="125.298" y1="0.000148797" x2="125.298" y2="50.3327" gradientUnits="userSpaceOnUse">
<stop stop-color="#D9D9D9"/>
<stop offset="1" stop-color="#737373"/>
</linearGradient>
<linearGradient id="paint7_linear_0_4" x1="149.155" y1="0.000288309" x2="149.155" y2="54.4646" gradientUnits="userSpaceOnUse">
<stop stop-color="#D9D9D9"/>
<stop offset="1" stop-color="#737373"/>
</linearGradient>
<clipPath id="clip0_0_4">
<rect width="266" height="381" fill="white"/>
</clipPath>
</defs>
</svg>
